# xmcd
#
# Track frame offsets: 
#        150
#        14450
#        28981
#        49328
#        63908
#        77437
#        90750
#        103871
#        119033
#        134943
#        153448
#        168844
#
# Disc length: 2450 seconds
#
# Revision: 0
# Processed by: cddbd v1.5.2PL0 Copyright (c) Steve Scherf et al.
# Submitted via: ExactAudioCopy v0.99pb3
#
DISCID=9e09900c
DTITLE=Morry Sochat and The Special 20s - Eatin' Dirt
DYEAR=2010
DGENRE=Blues
TTITLE0=Eatin' Dirt
TTITLE1=She's A Betty
TTITLE2=Someone To Love
TTITLE3=Meet Me In Chicago
TTITLE4=Empty Pockets
TTITLE5=Apple Of My Eye
TTITLE6=Natural Born Lover
TTITLE7=Mother-In-Law Blues
TTITLE8=Riot Up In Here
TTITLE9=Telephone Blues
TTITLE10=Yo-Yo
TTITLE11=Fried Chicken and Waffles
EXTD=
EXTT0=
EXTT1=
EXTT2=
EXTT3=
EXTT4=
EXTT5=
EXTT6=
EXTT7=
EXTT8=
EXTT9=
EXTT10=
EXTT11=
PLAYORDER=
